<svg version="1.1" id="图层_1" xmlns="http://www.w3.org/2000/svg" xmlns:xlink="http://www.w3.org/1999/xlink" x="0px"
	y="0px" viewBox="0 0 40 40" style="enable-background:new 0 0 40 40;" xml:space="preserve" fill="currentColor"
	role='img'>
	<path class="st0" d="M10.14,18.71c-1.52,0-3-0.43-4.31-1.27c-1.79-1.16-3.03-2.94-3.48-5.02C1.42,8.1,4.16,3.84,8.47,2.91
	c2.08-0.45,4.22-0.06,6.01,1.09c1.79,1.16,3.03,2.94,3.48,5.02L17.19,9.2c-0.41-1.88-1.52-3.49-3.14-4.53s-3.54-1.39-5.42-0.98
	c-3.88,0.84-6.35,4.68-5.51,8.55c0.84,3.88,4.68,6.35,8.55,5.51l0.17,0.77C11.28,18.65,10.71,18.71,10.14,18.71z"></path>
	<path class="st1" d="M14.89,36c-1.88,0-3.4-1.53-3.4-3.4V10.06c0-1.88,1.53-3.4,3.4-3.4s3.4,1.53,3.4,3.4V32.6
	C18.3,34.47,16.77,36,14.89,36z M14.89,7.71c-1.29,0-2.35,1.05-2.35,2.35V32.6c0,1.3,1.05,2.35,2.35,2.35s2.35-1.05,2.35-2.35V10.06
	C17.24,8.76,16.19,7.71,14.89,7.71z"></path>
	<path class="st0" d="M5.22,17.2c-2.2,0-4.13-1.55-4.6-3.7l-0.29-1.32c-0.46-2.13,0.64-4.34,2.61-5.25C3.12,6.84,3.3,6.77,3.48,6.71
	l0.16,0.5C3.48,7.27,3.33,7.33,3.18,7.4c-1.75,0.82-2.73,2.78-2.32,4.67l0.29,1.32c0.41,1.91,2.13,3.29,4.08,3.29
	c0.15,0,0.28-0.01,0.42-0.02l0.05,0.52c-0.14,0.01-0.29,0.02-0.43,0.02C5.25,17.2,5.24,17.2,5.22,17.2z"></path>
	<path class="st0" d="M15.05,13.98L15.05,13.98c0.24,0,0.45-0.2,0.45-0.45l0-2.52c0-0.24-0.2-0.45-0.45-0.45h0
	c-0.24,0-0.45,0.2-0.45,0.45v2.52C14.61,13.78,14.81,13.98,15.05,13.98z"></path>
	<path class="st0" d="M29.45,18.71c-0.57,0-1.14-0.06-1.71-0.18l0.17-0.77c1.88,0.41,3.8,0.06,5.42-0.98
	c1.62-1.04,2.73-2.65,3.14-4.53c0.84-3.88-1.63-7.72-5.51-8.55c-1.88-0.41-3.8-0.06-5.42,0.98C23.92,5.71,22.8,7.32,22.4,9.2
	l-0.77-0.17C22.07,6.94,23.31,5.16,25.1,4s3.93-1.54,6.01-1.09c4.3,0.93,7.05,5.19,6.12,9.49c-0.45,2.08-1.69,3.87-3.48,5.02
	C32.45,18.27,30.96,18.71,29.45,18.71z"></path>
	<path class="st1" d="M24.69,36c-1.88,0-3.4-1.53-3.4-3.4V10.06c0-1.88,1.53-3.4,3.4-3.4s3.4,1.53,3.4,3.4V32.6
	C28.09,34.47,26.57,36,24.69,36z M24.69,7.71c-1.29,0-2.35,1.05-2.35,2.35V32.6c0,1.3,1.05,2.35,2.35,2.35s2.35-1.05,2.35-2.35
	V10.06C27.04,8.76,25.99,7.71,24.69,7.71z"></path>
	<path class="st0" d="M34.36,17.2c-0.02,0-0.03,0-0.05,0c-0.14,0-0.29-0.01-0.43-0.02l0.05-0.52c0.14,0.01,0.28,0.02,0.42,0.02
	c1.95,0,3.67-1.38,4.08-3.29l0.29-1.32c0.41-1.89-0.57-3.85-2.32-4.67c-0.15-0.07-0.3-0.13-0.46-0.18l0.16-0.5
	c0.18,0.06,0.35,0.13,0.52,0.21c1.98,0.92,3.08,3.13,2.62,5.26l-0.29,1.32C38.49,15.65,36.56,17.2,34.36,17.2z"></path>
	<path class="st0" d="M24.53,13.98L24.53,13.98c-0.24,0-0.45-0.2-0.45-0.45v-2.52c0-0.24,0.2-0.45,0.45-0.45h0
	c0.24,0,0.45,0.2,0.45,0.45v2.52C24.98,13.78,24.78,13.98,24.53,13.98z"></path>
</svg>