<svg version="1.1" id="Layer_1" xmlns="http://www.w3.org/2000/svg" xmlns:xlink="http://www.w3.org/1999/xlink" x="0px"
	y="0px" viewBox="0 0 44 44" style="enable-background:new 0 0 44 44;" xml:space="preserve" fill="currentColor"
	role='img'>
	<g>
		<rect x="21.1" y="32.1" class="st0" width="1.8" height="2.9"></rect>
		<path class="st0" d="M30.2,28.2H13.8c-1,0-1.8-0.8-1.8-1.8v-1.9c0-1,0.8-1.8,1.8-1.8h16.5c1,0,1.8,0.8,1.8,1.8v1.9
		C32,27.4,31.2,28.2,30.2,28.2z M30.2,24.5l-16.5,0l0,1.8l16.5,0V24.5z"></path>
		<path class="st0" d="M23,41.7H21c-0.7,0-1.3-0.6-1.3-1.3v-5c0-0.7,0.6-1.3,1.3-1.3H23c0.7,0,1.3,0.6,1.3,1.3v5
		C24.3,41.1,23.7,41.7,23,41.7z M21.5,39.9h0.9v-4h-0.9V39.9z"></path>
		<path class="st0" d="M23.3,33h-2.6c-0.8,0-1.4-0.6-1.4-1.4v-1.8H21v1.4H23v-1.4h1.8v1.8C24.8,32.3,24.1,33,23.3,33z">
		</path>
		<path class="st0" d="M28,30.7H16c-1.5,0-2.7-1.2-2.7-2.7v-0.7h1.8v0.7c0,0.5,0.4,0.9,0.9,0.9h12c0.5,0,0.9-0.4,0.9-0.9v-0.7h1.8
		v0.7C30.7,29.4,29.5,30.7,28,30.7z"></path>
		<g>
			<path class="st0" d="M11.6,21.4h-3c-0.7,0-1.2-0.5-1.2-1.2v-1.8c0-0.7,0.5-1.2,1.2-1.2h3c0.7,0,1.2,0.5,1.2,1.2v1.8
			C12.8,20.8,12.2,21.4,11.6,21.4z M9.2,19.6H11V19H9.2V19.6z"></path>
			<path class="st0" d="M12.9,26.4H12c-2.9,0-2.9-2.5-2.9-3.3v-2.6H11v2.6c0,1.3,0.2,1.5,1.1,1.5h0.8V26.4z"></path>
		</g>
		<g>
			<path class="st0" d="M35.4,21.4h-3c-0.7,0-1.2-0.5-1.2-1.2v-1.8c0-0.7,0.5-1.2,1.2-1.2h3c0.7,0,1.2,0.5,1.2,1.2v1.8
			C36.6,20.8,36.1,21.4,35.4,21.4z M33,19.6h1.8V19H33V19.6z"></path>
			<path class="st0" d="M32,26.4h-0.8v-1.8H32c0.9,0,1.1-0.2,1.1-1.5v-2.6h1.8v2.6C34.8,23.9,34.8,26.4,32,26.4z">
			</path>
		</g>
		<g>
			<path class="st0" d="M12,43.8c-1.3,0-2.3-1-2.3-2.3s1-2.3,2.3-2.3s2.3,1,2.3,2.3S13.2,43.8,12,43.8z M12,41
			c-0.3,0-0.5,0.2-0.5,0.5c0,0.3,0.2,0.5,0.5,0.5s0.5-0.2,0.5-0.5C12.5,41.2,12.3,41,12,41z"></path>
			<path class="st0" d="M11.2,40.3c-0.2-0.8-0.1-1.7,0.3-2.3c0.3-0.5,0.7-0.8,1.2-0.9l7.8-1.6l0.4,1.8l-7.8,1.6
			c-0.1,0.1-0.3,0.5-0.2,1L11.2,40.3z"></path>
		</g>
		<g>
			<path class="st0" d="M32,43.8c-1.3,0-2.3-1-2.3-2.3s1-2.3,2.3-2.3s2.3,1,2.3,2.3S33.3,43.8,32,43.8z M32,41
			c-0.3,0-0.5,0.2-0.5,0.5c0,0.3,0.2,0.5,0.5,0.5c0.3,0,0.5-0.2,0.5-0.5C32.6,41.2,32.3,41,32,41z"></path>
			<path class="st0" d="M32.8,40.3l-1.7-0.5c0.1-0.5-0.1-0.9-0.2-1l-7.7-1.6l0.4-1.8l7.8,1.6c0.5,0.1,0.9,0.4,1.2,0.9
			C32.9,38.7,33,39.6,32.8,40.3z"></path>
		</g>
		<g>
			<path class="st0" d="M15.3,23.9l-1.7-0.4c1.1-4.4,1.1-4.4,0.2-6.1c-0.5-0.9-1.2-2.2-2.1-4.4c-1.1-3.2,0-4.2,1.8-5.6
			c0.6-0.4,1.2-0.9,1.9-1.5l0.1-0.1c0.2-0.1,0.5-0.7,0.7-1.1c0.9-1.9,2.5-5,8-3.8l0.1,0c2.4,0.9,3.1,2.5,3.6,3.6
			c0.2,0.5,0.4,1,0.7,1.2c0.7,0.7,1.4,1.2,2,1.6c2.6,1.9,3.4,3.2,0.7,8.4c-0.3,0.6-0.6,1.1-0.8,1.5c-1.1,2-1.1,2-0.1,6l0.1,0.3
			l-1.7,0.4l-0.1-0.3c-1.1-4.5-1.2-4.8,0.2-7.4c0.2-0.4,0.5-0.9,0.8-1.4c2.3-4.3,1.6-4.7-0.2-6.1c-0.6-0.5-1.4-1-2.1-1.7
			c-0.6-0.5-0.9-1.1-1.2-1.8c-0.5-1-0.9-2-2.6-2.6c-4.1-0.9-5.1,1.1-5.9,2.8c-0.4,0.7-0.7,1.4-1.2,1.8c-0.8,0.7-1.5,1.2-2,1.6
			c-1.6,1.2-2,1.4-1.2,3.5c0.9,2.1,1.5,3.3,2,4.2C16.5,18.8,16.5,19.2,15.3,23.9z"></path>
			<g>
				<path class="st0" d="M19.9,12.4c-0.7,0-1.3-0.1-1.9-0.6c-0.5-0.5-0.8-1.2-0.8-2.1s0.3-1.7,0.8-2.1C18.9,6.8,20,6.9,21,7
				c0.7,0.1,1.3,0.1,2,0c1-0.1,2.1-0.2,2.9,0.5c0.5,0.5,0.8,1.2,0.8,2.1s-0.3,1.7-0.8,2.1c-0.8,0.7-1.9,0.6-2.9,0.5
				c-0.7-0.1-1.3-0.1-2,0C20.7,12.4,20.3,12.4,19.9,12.4z M22,10.5c0.4,0,0.8,0,1.1,0.1c0.6,0.1,1.3,0.1,1.6-0.1
				c0.1-0.1,0.2-0.4,0.2-0.8S24.8,9,24.7,8.9c-0.2-0.2-1-0.1-1.6-0.1c-0.8,0.1-1.5,0.1-2.3,0c-0.6-0.1-1.3-0.1-1.6,0.1
				c-0.1,0.1-0.2,0.4-0.2,0.8s0.1,0.7,0.2,0.8c0.2,0.2,1,0.1,1.6,0.1C21.2,10.5,21.6,10.5,22,10.5z"></path>
			</g>
		</g>
	</g>
	<image style="overflow:visible;" width="512" height="512" xlink:href="../1698641.png"
		transform="matrix(1 0 0 1 414 -196.6933)">
	</image>
</svg>