<svg id="图层_1" data-name="图层 1" xmlns="http://www.w3.org/2000/svg" viewBox="0 0 76.11 115.25">
	<defs>
		<style>
			.cls-1,
			.cls-3 {
				fill: var(--red-col-2);
			}

			.cls-1,
			.cls-2 {
				fill-rule: evenodd;
			}

			.cls-2 {
				fill: #848383;
			}
		</style>
	</defs>
	<title>bloody</title>
	<path class="cls-1"
		d="M33.84,34.51c2.66.19,5.95.24,7.45-2.28A31.86,31.86,0,0,1,45.09,34c2.42-1.82,4.83-2.27,7.25-3.78,7.83,5.72,13,15.78,13.55,24.34.54,3,1.49,2.78,3.37,5.39a10.32,10.32,0,0,0,2,1.88c.35.34,1.43,1,.74,1.72s-1.16-.07-1.6-.7a10.21,10.21,0,0,0-1.64-2c-2-1.71-2.35-1.37-2.51-1a6.34,6.34,0,0,0,1.9,2.31,2.87,2.87,0,0,1,.44.31c.1.11.25.42.12.55s-.45,0-.56,0a1.86,1.86,0,0,1-.38-.46c-.64-.8-2.21-2.89-3.4-1.9-1.43,1.18-3.48,1.86-5.29,3.39-1.32,1.11-1.89,2.74-2.67,4.2-.26.48,1.88,2.83,5.31,7.07.64.8,1.78,1.44,2.24,2a.71.71,0,0,1,0,1,.7.7,0,0,1-1.11,0c-.5-.46-.91-1.75-1.66-2.51-3.74-3.72-5.67-5.57-7.52-4.55-4.76,3.4-11.12,2-16.76.29-1.52-.07-3.82,1.12-4.66-1.3,2.53-1.58,1.89-5.89,4.15-8.25,6-6.24,10.72-4.39,15.27-3.73.12-1.09,1.59-1.62,2.35-1.9-.45-4.1-2.08-13.46-8.38-11.93-.37-.49.6-1,.23-1.48-1.6.4-2.26,2.19-3.43,3.8-7.37,10.09-19,4-17.93-3C27.78,41.54,33.27,38.32,33.84,34.51ZM23.66,37.26c-.35-1.28-1.51-2.37-3.81-3.13-1.33-3.21-6-5.48-7.29-7.39-.9-3.24-5.32-7.14-8.3-7.49A3.92,3.92,0,0,0,1.92,22c-.56,2.48,8.46,10.89,14.93,15.09,2.16,1.81,2.1,3,4,4.63C22.34,43.2,24,38.5,23.66,37.26ZM25.05,23.7A49.29,49.29,0,0,0,22,16.54,36.28,36.28,0,0,0,13.17,6.22c-2.1,0-3.43,1-3.43,2.38,0,5.74,9.64,11.73,13.72,17.51,1.66,2.34,3.2,6.94,6.61,5.81C32.64,29.59,28.21,24.33,25.05,23.7ZM43.54,30a3.21,3.21,0,0,1-.59-.54c-.89-1.33-2.33-2.85-2.61-3.92s1-1.21-3.77-9C33.44,11.31,32.92,3.65,26.67,2c-1.16.45-2.62,2-2.66,3,1.11,4.22,5,7.36,7.16,11.23.57,1,.6,2.5,1.23,3.45s1.47,1.16,1.91,1.95c1.24,2.24,1,5.47,3.78,6.47a9.62,9.62,0,0,1,2-.94,20.63,20.63,0,0,1,2.63,2.41,5.91,5.91,0,0,1,.41.69c.13.17.34.24.46.09S43.69,30.09,43.54,30Zm11.64-2.48c-.35-.34-.74-.29-1.23-1A5.34,5.34,0,0,1,53,24.56c.6-3.28-.29-7.08-1.51-10.31.24-1.87,1-5.57-.78-7.64-5-5.67-6.79,5.82-1.77,8.48-.14,3,1.74,6.09.55,9.12,1.32,1.29.68,2.55,2.09,3.84a8,8,0,0,0,.86-1.57c.07-.17.91.34,1.28.78s.45.76.71,1.08.67.39.89.12A.72.72,0,0,0,55.18,27.47ZM34,83.91A7.31,7.31,0,0,1,32,82.6C29,79,23.18,72.78,23.53,72.6A6,6,0,0,0,26,70.54c.57-.85,2.79,1.65,3.85,2.73.33.34.36.76.72,1.12a.55.55,0,0,0,.7,0,.58.58,0,0,0-.07-.78c-.23-.23-.79-.36-.9-.48-1.08-1.13-2.75-3.24-3.89-4.36-2.85-2.18-7.26-3.57-10.77-.53-2.05,1.77-4,5.71-2.92,7.13s3.85-.42,5.75-1c1-.33,1.94-.59,2.83-.87.16,0,6.44,6.27,10,9.68a7.8,7.8,0,0,1,1.27,2,1.26,1.26,0,0,0,1.54.47C35,85,34.41,84.22,34,83.91Z"
		transform="translate(-1.89 -2.02)"></path>
</svg>