<svg xml:space="preserve" enable-background="new 0 0 44 44" viewBox="0 0 44 44" height="2.75rem" width="2.75rem" y="0px"
	x="0px" xmlns:xlink="http://www.w3.org/1999/xlink" xmlns="http://www.w3.org/2000/svg" version="1.1"
	fill="currentColor" role='img'>
	<path d="M40.3,13.6L23,11V6h-2v5L3.3,13.6L0,28l5.5,7h32l6.5-7L40.3,13.6z M36.5,33l-30,0l-4.2-5.5l2.6-12.1L22,12.8
l16.7,2.6l3,12.1L36.5,33z"></path>
	<rect height="3" width="3" y="22" x="8"></rect>
	<rect height="3" width="3" y="22" x="33"></rect>
	<rect height="3" width="3" y="22" x="28"></rect>
	<rect height="3" width="3" y="22" x="23"></rect>
	<rect height="3" width="3" y="22" x="18"></rect>
	<rect height="3" width="3" y="22" x="13"></rect>
	<rect height="3" width="3" y="17" x="13"></rect>
	<rect height="3" width="3" y="17" x="28"></rect>
	<rect height="3" width="3" y="17" x="23"></rect>
	<rect height="3" width="3" y="17" x="18"></rect>
	<rect height="3" width="14" y="27" x="15"></rect>
	<rect height="3" width="3" y="27" x="10"></rect>
	<rect height="3" width="3" y="27" x="31"></rect>
</svg>