<svg xml:space="preserve" enable-background="new 0 0 44 44" viewBox="0 0 44 44" height="44px" width="44px" y="0px"
	x="0px" xmlns:xlink="http://www.w3.org/1999/xlink" xmlns="http://www.w3.org/2000/svg" version="1.1"
	fill="currentColor" role='img'>
	<g>
		<path d="M32,11.5V4.4l-0.6-0.3c-9.6-4.8-18.5-0.2-18.9,0L12,4.4v10.3l-3.4,5.7c-0.1,0.1-1.4,2.9,0,6.6
c1.2,3.4,5.3,11.2,5.5,11.5l0.2,0.3l7.7,3.3l8.8-3.3l0.2-0.4C31.1,38,36,27.2,36,15v-0.5L32,11.5z M29.3,37.2L22,39.9l-6.3-2.7
c-0.8-1.5-4.2-8.1-5.2-10.9c-1-2.9-0.1-4.9-0.1-4.9l3.6-6.1V5.6c1.1-0.5,3.7-1.4,7-1.6v3h2V4c2.2,0.1,4.6,0.5,7,1.6v6.9l4,3
C33.9,25.8,30.1,35.3,29.3,37.2z"></path>
		<rect height="4.9" width="1.9" y="17" x="21.1"></rect>
		<rect height="6" width="4" y="9" x="20"></rect>
	</g>
</svg>